<svg width="151" height="55" viewBox="0 0 151 55" fill="none" xmlns="http://www.w3.org/2000/svg">
<g clip-path="url(#clip0_2414_716)">
<path d="M135.696 43.9325C133.638 43.9325 131.79 43.5463 130.153 42.7738C128.557 42.0004 127.276 40.9629 126.31 39.6613C125.385 38.3196 124.923 36.7737 124.924 35.0237C124.924 32.7462 125.68 30.8954 127.191 29.4712C128.703 28.0471 130.866 27.0708 133.68 26.5425L141.051 25.0787C142.52 24.7937 143.528 24.3463 144.075 23.7363C144.621 23.1263 144.894 22.2312 144.894 21.0512L145.649 28.19L135.066 30.3875C133.639 30.6708 132.526 31.1792 131.728 31.9125C130.972 32.6458 130.594 33.6625 130.594 34.9625C130.594 36.305 131.119 37.3833 132.169 38.1975C133.26 39.01 134.73 39.4167 136.577 39.4175C138.09 39.4175 139.476 39.0921 140.736 38.4413C142.037 37.7913 143.045 36.8962 143.76 35.7562C144.516 34.5762 144.894 33.2337 144.894 31.7287V21.0512C144.894 19.5862 144.348 18.4471 143.255 17.6338C142.205 16.7796 140.756 16.3525 138.909 16.3525C136.557 16.3525 134.751 16.9221 133.491 18.0613C132.231 19.2004 131.496 20.8071 131.286 22.8813L125.743 22.15C125.953 19.9933 126.625 18.1425 127.759 16.5975C128.893 15.0108 130.405 13.79 132.294 12.935C134.184 12.0817 136.431 11.655 139.035 11.655C142.73 11.655 145.565 12.57 147.539 14.4C149.513 16.23 150.5 18.5896 150.5 21.4788V43.0162H145.02V39.0512C144.473 40.3929 143.36 41.5521 141.681 42.5287C140.042 43.4646 138.047 43.9325 135.696 43.9325ZM80.2587 43.0175V12.57H85.7388V15.9875C86.1588 14.8075 87.0829 13.7904 88.5112 12.9362C89.9396 12.0821 91.5979 11.655 93.4862 11.655C95.3362 11.655 97.0375 12.0413 98.59 12.8138C100.144 13.5871 101.152 14.7467 101.614 16.2925C102.16 14.8675 103.168 13.7487 104.639 12.9362C106.15 12.0821 107.829 11.655 109.676 11.655C112.869 11.655 115.305 12.55 116.985 14.34C118.665 16.1292 119.505 18.7325 119.505 22.15V43.0175H113.898V22.8813C113.898 20.8479 113.436 19.3229 112.513 18.3063C111.629 17.2479 110.327 16.7188 108.606 16.7188C106.716 16.7188 105.246 17.3696 104.196 18.6713C103.188 19.9338 102.684 21.7846 102.684 24.2237V43.0175H97.0788V22.8813C97.0788 20.8479 96.6162 19.3229 95.6912 18.3063C94.8104 17.2479 93.5087 16.7188 91.7862 16.7188C89.8962 16.7188 88.4262 17.3696 87.3762 18.6713C86.3679 19.9338 85.8638 21.7846 85.8638 24.2237V43.0175H80.2587ZM58.82 54C54.9142 54 51.7433 53.1254 49.3075 51.3763C46.8717 49.6271 45.3175 47.1867 44.645 44.055L50.1263 42.895C50.5888 44.8883 51.5758 46.4342 53.0875 47.5325C54.5992 48.6717 56.51 49.2413 58.82 49.2413C61.5908 49.2413 63.6696 48.5496 65.0563 47.1663C66.4838 45.8246 67.1975 43.8113 67.1975 41.1263V36.305C66.5683 37.8092 65.3925 39.03 63.67 39.9675C61.99 40.9025 60.1004 41.37 58.0012 41.37C55.2287 41.37 52.7929 40.76 50.6937 39.54C48.5937 38.2775 46.9558 36.5283 45.78 34.2925C44.6042 32.055 44.0162 29.4717 44.0162 26.5425C44.0162 23.5733 44.6037 20.97 45.7787 18.7325C46.9554 16.495 48.5725 14.7662 50.63 13.5462C52.73 12.2854 55.1871 11.655 58.0012 11.655C60.1012 11.655 62.0121 12.1225 63.7338 13.0575C65.4963 13.9525 66.6929 15.0712 67.3237 16.4137V12.57H72.805V41.125C72.805 43.8083 72.2592 46.1067 71.1675 48.02C70.0758 49.9725 68.48 51.4571 66.38 52.4738C64.3217 53.4904 61.8017 54 58.82 54ZM58.6938 36.5488C61.3813 36.5488 63.5229 35.6333 65.1187 33.8025C66.7562 31.9725 67.5754 29.5521 67.5762 26.5412C67.5762 23.4912 66.7571 21.0508 65.1187 19.22C63.4804 17.3892 61.3388 16.4737 58.6938 16.4737C56.0063 16.4737 53.8433 17.3892 52.205 19.22C50.6092 21.0508 49.8113 23.4912 49.8113 26.5412C49.8113 29.5512 50.63 31.9721 52.2675 33.8037C53.9058 35.6329 56.0488 36.5479 58.6938 36.5488ZM32.7012 43.0175V12.57H38.3087V43.0175H32.7012ZM32.6388 8.665V0H38.3713V8.665H32.6388ZM0.5 43.0175V0H6.42125V43.0175H0.5ZM1.6975 24.8338V19.6475H25.8238V24.835L1.6975 24.8338ZM1.6975 5.2475V0H28.155V5.2475H1.6975Z" fill="black"/>
</g>
<defs>
<clipPath id="clip0_2414_716">
<rect width="150" height="55" fill="white" transform="translate(0.5)"/>
</clipPath>
</defs>
</svg>
