<svg width="150" height="51" viewBox="0 0 150 51" fill="none" xmlns="http://www.w3.org/2000/svg">
<g clip-path="url(#clip0_2414_718)">
<path d="M63.8334 26.1508C63.8334 33.1931 58.3242 38.3824 51.5632 38.3824C44.8022 38.3824 39.293 33.1931 39.293 26.1508C39.293 19.0589 44.8022 13.9192 51.5632 13.9192C58.3242 13.9192 63.8334 19.0589 63.8334 26.1508ZM58.4621 26.1508C58.4621 21.7501 55.2691 18.739 51.5632 18.739C47.8573 18.739 44.6643 21.7501 44.6643 26.1508C44.6643 30.5074 47.8573 33.5626 51.5632 33.5626C55.2691 33.5626 58.4621 30.5019 58.4621 26.1508ZM90.304 26.1508C90.304 33.1931 84.7948 38.3824 78.0338 38.3824C71.2727 38.3824 65.7636 33.1931 65.7636 26.1508C65.7636 19.0644 71.2727 13.9192 78.0338 13.9192C84.7948 13.9192 90.304 19.0589 90.304 26.1508ZM84.9327 26.1508C84.9327 21.7501 81.7397 18.739 78.0338 18.739C74.3279 18.739 71.1349 21.7501 71.1349 26.1508C71.1349 30.5074 74.3279 33.5626 78.0338 33.5626C81.7397 33.5626 84.9327 30.5019 84.9327 26.1508ZM115.672 14.6581V36.6177C115.672 45.6508 110.344 49.3401 104.047 49.3401C98.1183 49.3401 94.5503 45.3751 93.2047 42.1324L97.8812 40.1857C98.7139 42.1765 100.754 44.5258 104.041 44.5258C108.072 44.5258 110.571 42.0387 110.571 37.3567V35.5975H110.383C109.181 37.0809 106.865 38.3769 103.942 38.3769C97.8261 38.3769 92.2231 33.0497 92.2231 26.1949C92.2231 19.2905 97.8261 13.9192 103.942 13.9192C106.859 13.9192 109.175 15.2151 110.383 16.6545H110.571V14.6637H115.672V14.6581ZM110.951 26.1949C110.951 21.8879 108.078 18.739 104.422 18.739C100.716 18.739 97.611 21.8879 97.611 26.1949C97.611 30.4578 100.716 33.5626 104.422 33.5626C108.078 33.5626 110.951 30.4578 110.951 26.1949ZM124.082 1.78682V37.6324H118.843V1.78682H124.082ZM144.497 30.1765L148.666 32.9559C147.321 34.9467 144.078 38.3769 138.475 38.3769C131.526 38.3769 126.337 33.0056 126.337 26.1453C126.337 18.8714 131.571 13.9137 137.874 13.9137C144.221 13.9137 147.326 18.9651 148.341 21.6949L148.898 23.0846L132.547 29.8567C133.798 32.3107 135.745 33.5626 138.475 33.5626C141.21 33.5626 143.107 32.217 144.497 30.1765ZM131.664 25.7758L142.594 21.2372C141.993 19.7096 140.185 18.6453 138.056 18.6453C135.326 18.6453 131.526 21.0552 131.664 25.7758ZM19.4621 22.9688V17.7795H36.9492C37.1202 18.6839 37.2084 19.7537 37.2084 20.9118C37.2084 24.8052 36.1441 29.6195 32.7139 33.0497C29.3775 36.524 25.1147 38.3769 19.4676 38.3769C9.00069 38.3769 0.199219 29.8512 0.199219 19.3842C0.199219 8.91734 9.00069 0.391602 19.4676 0.391602C25.258 0.391602 29.383 2.66366 32.4823 5.62506L28.8205 9.28682C26.5981 7.20226 23.5871 5.58094 19.4621 5.58094C11.8187 5.58094 5.84076 11.7409 5.84076 19.3842C5.84076 27.0276 11.8187 33.1876 19.4621 33.1876C24.4198 33.1876 27.2433 31.1967 29.0522 29.3879C30.5191 27.921 31.4841 25.8254 31.8647 22.9633L19.4621 22.9688Z" fill="black"/>
</g>
<defs>
<clipPath id="clip0_2414_718">
<rect width="150" height="50.7353" fill="white" transform="translate(0 0.132324)"/>
</clipPath>
</defs>
</svg>
