<svg width="150" height="41" viewBox="0 0 150 41" fill="none" xmlns="http://www.w3.org/2000/svg">
<g clip-path="url(#clip0_2414_713)">
<path d="M141.984 19.5335L150 40.75C147.65 40.4278 145.255 39.9676 142.859 39.5994L138.345 27.8636L133.692 38.633C131.434 38.2648 129.177 38.1267 126.873 37.8506L135.028 19.3034L127.657 0.25H134.521L138.667 10.8813L143.09 0.25H150L141.984 19.5335ZM122.267 0.25H116.047V37.0222C118.074 37.1602 120.193 37.2523 122.267 37.4824V0.25ZM110.703 36.608C105.037 36.2398 99.3704 35.8716 93.6118 35.7795V0.25H99.9232V29.7966C103.563 29.8886 107.202 30.1648 110.703 30.3489V36.608ZM86.8397 14.6551V20.9602H78.1787V35.3653H71.9134V0.25H89.6499V6.55511H78.1787V14.6091H86.8397V14.6551ZM61.2715 6.55511V35.6875C59.1523 35.6875 56.9871 35.6875 54.914 35.7795V6.55511H48.3722V0.25H67.8593V6.55511H61.2715ZM41.5541 21.2824C38.7899 21.2824 35.473 21.2824 33.1235 21.4205V30.8091C36.855 30.533 40.5405 30.2568 44.3182 30.1188V36.1937L26.812 37.5744V0.25H44.3182V6.55511H33.1235V15.0693C35.5651 15.0693 39.3428 14.9313 41.5541 14.9313V21.2824ZM6.44963 17.7386V39.8295C4.19226 40.1057 2.16523 40.4278 0 40.75V0.25H6.03501L14.2813 23.2614V0.25H20.6388V38.1267C18.3814 38.4949 16.1241 38.633 13.7285 38.9551L6.44963 17.7386Z" fill="black"/>
</g>
<defs>
<clipPath id="clip0_2414_713">
<rect width="150" height="40.5" fill="white" transform="translate(0 0.25)"/>
</clipPath>
</defs>
</svg>
