<svg width="151" height="43" viewBox="0 0 151 43" fill="none" xmlns="http://www.w3.org/2000/svg">
<path d="M52.395 23.9119C51.1178 23.2037 50.4456 22.6303 50.4456 21.8209C50.4456 20.7754 51.3531 20.1346 52.7983 20.1346C54.4788 20.1346 55.9576 20.8429 55.9576 20.8429L57.134 17.2343C57.134 17.2343 56.0585 16.3911 52.8655 16.3911C48.4291 16.3911 45.337 18.9543 45.337 22.5292C45.337 24.5527 46.7822 26.1041 48.6979 27.217C50.244 28.0939 50.7817 28.7346 50.7817 29.6452C50.7817 30.6233 50.0087 31.399 48.5635 31.399C46.4125 31.399 44.3959 30.286 44.3959 30.286L43.1523 33.8946C43.1523 33.8946 45.0345 35.1425 48.1602 35.1425C52.7311 35.1425 55.9912 32.8829 55.9912 28.8358C56.0585 26.6099 54.378 25.0586 52.395 23.9119Z" fill="black"/>
<path d="M70.6111 16.3236C68.3593 16.3236 66.6116 17.4028 65.2336 19.0216L65.1663 18.9879L67.1157 8.73535H62.007L57.0664 34.8052H62.1415L63.8219 25.9016C64.4941 22.5291 66.2082 20.4718 67.8215 20.4718C68.9642 20.4718 69.4012 21.2475 69.4012 22.3604C69.4012 23.0687 69.3339 23.9118 69.1659 24.6201L67.2501 34.8389H72.3252L74.3082 24.3165C74.5434 23.2036 74.6779 21.8883 74.6779 20.9777C74.7451 18.0436 73.2663 16.3236 70.6111 16.3236Z" fill="black"/>
<path d="M86.2404 16.3232C80.1234 16.3232 76.0566 21.8542 76.0566 28.026C76.0566 31.9719 78.4765 35.1758 83.0475 35.1758C89.0636 35.1758 93.0967 29.7797 93.0967 23.473C93.1304 19.797 91.0129 16.3232 86.2404 16.3232ZM83.7533 31.2299C82.0056 31.2299 81.2997 29.746 81.2997 27.8911C81.2997 24.957 82.8122 20.2017 85.5682 20.2017C87.3831 20.2017 87.9545 21.753 87.9545 23.2707C87.9545 26.4409 86.442 31.2299 83.7533 31.2299Z" fill="black"/>
<path d="M106.137 16.3232C102.709 16.3232 100.759 19.3585 100.759 19.3585H100.692L100.995 16.6268H96.4908C96.2556 18.4817 95.8523 21.2809 95.4489 23.4056L91.9199 42.0221H96.995L98.4066 34.4676H98.5074C98.5074 34.4676 99.5493 35.1421 101.499 35.1421C107.481 35.1421 111.38 29.004 111.38 22.7985C111.38 19.3923 109.867 16.3232 106.137 16.3232ZM101.297 31.3311C99.9862 31.3311 99.2132 30.5891 99.2132 30.5891L100.053 25.8338C100.658 22.6636 102.305 20.5389 104.053 20.5389C105.599 20.5389 106.07 21.9891 106.07 23.3381C106.07 26.6095 104.12 31.3311 101.297 31.3311Z" fill="black"/>
<path d="M118.639 9.00488C117.026 9.00488 115.715 10.2865 115.715 11.9727C115.715 13.4904 116.656 14.5359 118.101 14.5359H118.168C119.748 14.5359 121.126 13.4566 121.16 11.568C121.193 10.0504 120.185 9.00488 118.639 9.00488Z" fill="black"/>
<path d="M111.514 34.8049H116.622L120.084 16.728H114.942L111.514 34.8049Z" fill="black"/>
<path d="M132.99 16.6944H129.461L129.629 15.8513C129.932 14.0976 130.94 12.5462 132.654 12.5462C133.562 12.5462 134.268 12.816 134.268 12.816L135.276 8.83638C135.276 8.83638 134.402 8.39795 132.52 8.39795C130.705 8.39795 128.924 8.90383 127.546 10.0842C125.798 11.5681 124.991 13.6929 124.588 15.8513L124.454 16.6944H122.101L121.361 20.5391H123.714L121.025 34.805H126.1L128.789 20.5391H132.285L132.99 16.6944Z" fill="black"/>
<path d="M145.225 16.728C145.225 16.728 142.032 24.7547 140.62 29.139H140.553C140.452 27.7225 139.31 16.728 139.31 16.728H133.966L137.024 33.321C137.091 33.692 137.058 33.928 136.923 34.1641C136.318 35.3108 135.344 36.4237 134.167 37.2331C133.226 37.9414 132.151 38.3798 131.311 38.6833L132.722 43.0002C133.764 42.7641 135.881 41.921 137.696 40.2347C140.015 38.0425 142.166 34.7037 144.351 30.117L150.569 16.728H145.225Z" fill="black"/>
<path d="M25.6408 4.99161C25.6408 4.99161 25.1702 5.12652 24.3972 5.36259C24.2628 4.92416 24.0611 4.41828 23.7922 3.87867C22.9184 2.1924 21.6076 1.28181 20.0616 1.28181C19.9607 1.28181 19.8599 1.28181 19.7255 1.31554C19.6919 1.24808 19.6246 1.21436 19.591 1.14691C18.9188 0.404947 18.045 0.0676919 17.0031 0.101417C14.9865 0.168868 12.9699 1.61906 11.3567 4.21593C10.2139 6.0371 9.34008 8.33044 9.10481 10.1179C6.78574 10.8261 5.17248 11.332 5.13887 11.3657C3.96253 11.7367 3.92892 11.7704 3.79448 12.8834C3.69365 13.7265 0.601562 37.4693 0.601562 37.4693L26.0105 41.8873V4.95789C25.8088 4.95789 25.708 4.99161 25.6408 4.99161ZM19.7591 6.81279C18.4147 7.2175 16.9359 7.68965 15.4907 8.12808C15.894 6.54299 16.7006 4.95789 17.6417 3.9124C18.0114 3.54142 18.5155 3.10299 19.0869 2.83318C19.6583 4.0473 19.7927 5.69985 19.7591 6.81279ZM17.0031 1.48416C17.4736 1.48416 17.8769 1.58534 18.213 1.78769C17.6753 2.0575 17.1375 2.49593 16.6334 3.00181C15.3562 4.38455 14.3815 6.54299 13.9782 8.60024C12.7683 8.97122 11.5583 9.3422 10.4492 9.67946C11.1886 6.44181 13.911 1.55161 17.0031 1.48416ZM13.1044 20.0332C13.2388 22.1916 18.9188 22.6638 19.2549 27.7563C19.4902 31.7697 17.1375 34.5014 13.7429 34.7038C9.64257 34.9736 7.39072 32.5453 7.39072 32.5453L8.26457 28.8355C8.26457 28.8355 10.5164 30.5555 12.3313 30.4206C13.5077 30.3532 13.9446 29.3751 13.911 28.7006C13.7429 25.8677 9.10481 26.0363 8.80233 21.3822C8.53345 17.47 11.0878 13.5242 16.7342 13.1532C18.9188 13.0183 20.028 13.5579 20.028 13.5579L18.7508 18.4144C18.7508 18.4144 17.3056 17.7398 15.5915 17.8748C13.1044 18.0434 13.0708 19.6285 13.1044 20.0332ZM21.1035 6.40808C21.1035 5.39632 20.969 3.94612 20.4985 2.73201C22.0445 3.03554 22.784 4.75554 23.12 5.80103C22.5151 5.96965 21.8429 6.17201 21.1035 6.40808Z" fill="black"/>
<path d="M26.7832 41.82L37.3366 39.1895C37.3366 39.1895 32.7993 8.39809 32.7657 8.19573C32.7321 7.99338 32.5641 7.85848 32.396 7.85848C32.228 7.85848 29.2703 7.79103 29.2703 7.79103C29.2703 7.79103 27.4554 6.0373 26.7832 5.36279V41.82Z" fill="black"/>
</svg>
