<svg width="70" height="70" viewBox="0 0 70 70" fill="none" xmlns="http://www.w3.org/2000/svg">
<path d="M40.0163 35.9593V48.9222H36.082V56.4796H40.0163V70H69.9996V61.8463H49.7968V56.4796H69.9996V35.9593H40.0163ZM59.0265 48.9222H49.7968V43.6074H59.0265V48.9222Z" fill="black"/>
<path d="M70.0015 8.26389V0H39.208V13.6435H35.9672L35.9219 20.125H39.2015V25.1546H49.2608V20.0926H53.4672V13.6435H49.2608V8.26389H61.958C61.958 9.83889 62.0358 10.7074 62.0811 12.2176C62.097 14.9399 61.2103 17.5906 59.5598 19.7556C57.3043 22.8991 53.6811 25.4139 49.2608 26.8398C46.5376 27.7117 43.6941 28.1492 40.8348 28.1361C40.2774 28.1361 39.7265 28.1361 39.1821 28.0907V34.0278C39.7265 34.0278 40.2774 34.0278 40.8348 34.0278C47.4266 34.1276 53.9141 32.376 59.5598 28.9722C65.9311 24.9667 70.0015 18.9454 70.0015 12.2176V8.26389Z" fill="black"/>
<path d="M33.4371 43.575V35.9593H6.21484V43.575H22.2954C22.6436 44.7202 22.8205 45.9105 22.8204 47.1074C22.8198 47.7039 22.7765 48.2995 22.6908 48.8898C22.2129 51.7714 20.8358 54.4281 18.7565 56.4796C16.2249 58.995 13.1062 60.8395 9.68244 61.8463C8.55564 62.1968 7.40558 62.4675 6.24077 62.6565V70H33.463V61.8463H24.4019C26.5076 60.3632 28.3612 58.5512 29.8917 56.4796C31.5577 54.2362 32.6844 51.6391 33.1843 48.8898C33.3534 47.9421 33.438 46.9812 33.4371 46.0185V43.575Z" fill="black"/>
<path d="M23.7222 2.81296L34.5009 0.0777778V16.1583H26.2176V9.74167L16.262 12.3602V12.3926V34.125H6.21574V15.063L0 16.7157V8.83426L6.21574 7.25926V0H16.262V4.70556L23.7222 2.81296Z" fill="black"/>
</svg>
